<svg width="40" height="40" viewBox="0 0 40 40" fill="none" xmlns="http://www.w3.org/2000/svg">
<path d="M3.75001 20C3.75332 17.0173 4.93964 14.1577 7.04871 12.0487C9.15778 9.9396 12.0173 8.75327 15 8.74996H31.9828L30.3656 7.13434C30.1311 6.89979 29.9993 6.58167 29.9993 6.24996C29.9993 5.91826 30.1311 5.60014 30.3656 5.36559C30.6002 5.13104 30.9183 4.99927 31.25 4.99927C31.5817 4.99927 31.8998 5.13104 32.1344 5.36559L35.8844 9.11559C36.0006 9.23168 36.0928 9.36954 36.1557 9.52129C36.2186 9.67303 36.251 9.83569 36.251 9.99996C36.251 10.1642 36.2186 10.3269 36.1557 10.4786C36.0928 10.6304 36.0006 10.7682 35.8844 10.8843L32.1344 14.6343C31.8998 14.8689 31.5817 15.0007 31.25 15.0007C30.9183 15.0007 30.6002 14.8689 30.3656 14.6343C30.1311 14.3998 29.9993 14.0817 29.9993 13.75C29.9993 13.4183 30.1311 13.1001 30.3656 12.8656L31.9828 11.25H15C12.6801 11.2524 10.456 12.1751 8.81556 13.8155C7.17516 15.4559 6.25249 17.6801 6.25001 20C6.25001 20.3315 6.11831 20.6494 5.88389 20.8838C5.64947 21.1183 5.33153 21.25 5.00001 21.25C4.66849 21.25 4.35054 21.1183 4.11612 20.8838C3.8817 20.6494 3.75001 20.3315 3.75001 20ZM35 18.75C34.6685 18.75 34.3505 18.8817 34.1161 19.1161C33.8817 19.3505 33.75 19.6684 33.75 20C33.7475 22.3198 32.8249 24.544 31.1845 26.1844C29.544 27.8248 27.3199 28.7475 25 28.75H8.01719L9.63438 27.1343C9.75052 27.0182 9.84264 26.8803 9.9055 26.7286C9.96835 26.5768 10.0007 26.4142 10.0007 26.25C10.0007 26.0857 9.96835 25.9231 9.9055 25.7713C9.84264 25.6196 9.75052 25.4817 9.63438 25.3656C9.51824 25.2495 9.38037 25.1573 9.22863 25.0945C9.07689 25.0316 8.91425 24.9993 8.75001 24.9993C8.58576 24.9993 8.42313 25.0316 8.27139 25.0945C8.11964 25.1573 7.98177 25.2495 7.86563 25.3656L4.11563 29.1156C3.99941 29.2317 3.90721 29.3695 3.84431 29.5213C3.7814 29.673 3.74902 29.8357 3.74902 30C3.74902 30.1642 3.7814 30.3269 3.84431 30.4786C3.90721 30.6304 3.99941 30.7682 4.11563 30.8843L7.86563 34.6343C7.98177 34.7505 8.11964 34.8426 8.27139 34.9055C8.42313 34.9683 8.58576 35.0007 8.75001 35.0007C8.91425 35.0007 9.07689 34.9683 9.22863 34.9055C9.38037 34.8426 9.51824 34.7505 9.63438 34.6343C9.75052 34.5182 9.84264 34.3803 9.9055 34.2286C9.96835 34.0768 10.0007 33.9142 10.0007 33.75C10.0007 33.5857 9.96835 33.4231 9.9055 33.2713C9.84264 33.1196 9.75052 32.9817 9.63438 32.8656L8.01719 31.25H25C27.9827 31.2467 30.8422 30.0603 32.9513 27.9513C35.0604 25.8422 36.2467 22.9826 36.25 20C36.25 19.6684 36.1183 19.3505 35.8839 19.1161C35.6495 18.8817 35.3315 18.75 35 18.75Z" fill="black"/>
</svg>
