<svg width="36" height="36" viewBox="0 0 36 36" fill="none" xmlns="http://www.w3.org/2000/svg">
<path d="M1.25 36C1.94 36 2.5 35.44 2.5 34.75V1.25C2.5 0.91848 2.36831 0.600536 2.13388 0.366116C1.89946 0.131695 1.58152 0 1.25 0C0.91848 0 0.600536 0.131695 0.366116 0.366116C0.131695 0.600536 0 0.91848 0 1.25V34.75C0 35.44 0.560001 36 1.25 36ZM36 32.744C36 35.359 33.069 36.904 30.912 35.424L9.408 20.681C7.525 19.391 7.525 16.611 9.408 15.321L30.912 0.576C33.07 -0.900002 36 0.643002 36 3.257V32.744Z" fill="black"/>
</svg>
