<svg width="30" height="30" viewBox="0 0 30 30" fill="none" xmlns="http://www.w3.org/2000/svg">
<path d="M12.5 17.5H17.5V15H12.5V17.5ZM12.5 13.75H22.5V11.25H12.5V13.75ZM12.5 10H22.5V7.5H12.5V10ZM10 22.5C9.3125 22.5 8.72417 22.2554 8.235 21.7663C7.74583 21.2771 7.50083 20.6883 7.5 20V5C7.5 4.3125 7.745 3.72417 8.235 3.235C8.725 2.74583 9.31333 2.50083 10 2.5H25C25.6875 2.5 26.2763 2.745 26.7663 3.235C27.2563 3.725 27.5008 4.31333 27.5 5V20C27.5 20.6875 27.2554 21.2763 26.7663 21.7663C26.2771 22.2563 25.6883 22.5008 25 22.5H10ZM5 27.5C4.3125 27.5 3.72417 27.2554 3.235 26.7663C2.74583 26.2771 2.50083 25.6883 2.5 25V7.5H5V25H22.5V27.5H5Z" fill="black"/>
</svg>
