<svg width="24" height="26" viewBox="0 0 24 26" fill="none" xmlns="http://www.w3.org/2000/svg">
<path d="M20.913 0.0978807L9.803 3.49688C8.457 3.88088 7.366 5.28488 7.366 6.63088V18.3499C7.366 18.3499 6.561 17.8069 4.768 18.0609C2.135 18.4349 0 20.4559 0 22.5759C0 24.6959 2.135 25.9949 4.768 25.6209C7.403 25.2489 9.334 23.2899 9.334 21.1689V11.1629C9.334 10.2229 10.464 9.81988 10.464 9.81988L20.287 6.74088C20.287 6.74088 21.374 6.37588 21.374 7.38188V15.4189C21.374 15.4189 20.373 14.8429 18.58 15.0609C15.947 15.3799 13.812 17.3589 13.812 19.4779C13.812 21.5989 15.947 22.9409 18.58 22.6209C21.215 22.3019 23.35 20.3239 23.35 18.2029V1.83988C23.35 0.493881 22.258 -0.286119 20.913 0.0978807Z" fill="black"/>
</svg>
