<svg width="60" height="60" viewBox="0 0 60 60" fill="none" xmlns="http://www.w3.org/2000/svg">
<g clip-path="url(#clip0_362_596)">
<path d="M59.5 30C59.5 13.7076 46.2924 0.5 30 0.5C13.7076 0.5 0.5 13.7076 0.5 30C0.5 46.2924 13.7076 59.5 30 59.5C46.2924 59.5 59.5 46.2924 59.5 30Z" fill="#9747FF" stroke="#9747FF"/>
<path d="M57 30C57 15.0883 44.9117 3 30 3C15.0883 3 3 15.0883 3 30C3 44.9117 15.0883 57 30 57C44.9117 57 57 44.9117 57 30Z" fill="#7A35D4"/>
<path d="M54 30C54 16.7452 43.2548 6 30 6C16.7452 6 6 16.7452 6 30C6 43.2548 16.7452 54 30 54C43.2548 54 54 43.2548 54 30Z" fill="#7131C6"/>
<path d="M51 30C51 18.402 41.598 9 30 9C18.402 9 9 18.402 9 30C9 41.598 18.402 51 30 51C41.598 51 51 41.598 51 30Z" fill="#6628B6"/>
<path d="M48 30C48 20.0589 39.9411 12 30 12C20.0589 12 12 20.0589 12 30C12 39.9411 20.0589 48 30 48C39.9411 48 48 39.9411 48 30Z" fill="#5C21A8"/>
<path d="M45 30C45 21.7157 38.2843 15 30 15C21.7157 15 15 21.7157 15 30C15 38.2843 21.7157 45 30 45C38.2843 45 45 38.2843 45 30Z" fill="#55209A"/>
<path d="M39 30C39 25.0294 34.9706 21 30 21C25.0294 21 21 25.0294 21 30C21 34.9706 25.0294 39 30 39C34.9706 39 39 34.9706 39 30Z" fill="#9C8AFE"/>
<path d="M48.3633 25.2002L45.5806 32.742" stroke="white" stroke-width="10"/>
<path d="M52.4812 8.03735L49.4812 26.7597" stroke="white" stroke-width="3"/>
<path d="M47.0237 31.3528L53.0237 34.3528" stroke="white"/>
</g>
<defs>
<clipPath id="clip0_362_596">
<rect width="60" height="60" fill="white"/>
</clipPath>
</defs>
</svg>
