<svg width="45" height="45" viewBox="0 0 45 45" fill="none" xmlns="http://www.w3.org/2000/svg">
<path fill-rule="evenodd" clip-rule="evenodd" d="M19.6876 3.75C17.1462 3.75022 14.6417 4.35818 12.3831 5.52318C10.1245 6.68817 8.17716 8.37641 6.70368 10.447C5.23019 12.5177 4.27325 14.9106 3.91269 17.4263C3.55212 19.942 3.79839 22.5074 4.63094 24.9086C5.4635 27.3097 6.8582 29.477 8.69868 31.2295C10.5392 32.982 12.7721 34.269 15.2111 34.983C17.6501 35.697 20.2245 35.8175 22.7195 35.3342C25.2145 34.851 27.5578 33.7781 29.5539 32.205L36.4014 39.0525C36.755 39.394 37.2286 39.583 37.7202 39.5788C38.2119 39.5745 38.6821 39.3773 39.0298 39.0297C39.3774 38.682 39.5746 38.2117 39.5789 37.7201C39.5831 37.2285 39.3942 36.7549 39.0526 36.4012L32.2051 29.5537C34.0576 27.2037 35.211 24.3795 35.5334 21.4045C35.8558 18.4295 35.3341 15.4238 34.028 12.7314C32.722 10.0391 30.6843 7.76879 28.1482 6.18043C25.6121 4.59207 22.68 3.7498 19.6876 3.75ZM7.50011 19.6875C7.50011 16.4552 8.78415 13.3552 11.0697 11.0696C13.3553 8.78404 16.4553 7.5 19.6876 7.5C22.9199 7.5 26.0199 8.78404 28.3055 11.0696C30.5911 13.3552 31.8751 16.4552 31.8751 19.6875C31.8751 22.9198 30.5911 26.0198 28.3055 28.3054C26.0199 30.591 22.9199 31.875 19.6876 31.875C16.4553 31.875 13.3553 30.591 11.0697 28.3054C8.78415 26.0198 7.50011 22.9198 7.50011 19.6875Z" fill="black"/>
</svg>
