<svg width="36" height="36" viewBox="0 0 36 36" fill="none" xmlns="http://www.w3.org/2000/svg">
<path d="M34.75 0C34.06 0 33.5 0.56 33.5 1.25V34.75C33.5 35.0815 33.6317 35.3995 33.8661 35.6339C34.1005 35.8683 34.4185 36 34.75 36C35.0815 36 35.3995 35.8683 35.6339 35.6339C35.8683 35.3995 36 35.0815 36 34.75V1.25C36 0.56 35.44 0 34.75 0ZM0 3.256C0 0.641 2.931 -0.904 5.088 0.576L26.592 15.319C28.475 16.609 28.475 19.389 26.592 20.679L5.088 35.424C2.93 36.9 0 35.357 0 32.743V3.256Z" fill="black"/>
</svg>
